<?xml version="1.0" standalone="no"?>
<!DOCTYPE svg PUBLIC "-//W3C//DTD SVG 20010904//EN"
 "http://www.w3.org/TR/2001/REC-SVG-20010904/DTD/svg10.dtd">
<svg version="1.0" xmlns="http://www.w3.org/2000/svg"
 width="500.000000pt" height="500.000000pt" viewBox="0 0 500.000000 500.000000"
 preserveAspectRatio="xMidYMid meet">

<g transform="translate(0.000000,500.000000) scale(0.100000,-0.100000)"
fill="#000000" stroke="none">
<path d="M2293 4758 c-35 -11 -60 -24 -57 -29 3 -5 -2 -6 -10 -3 -21 8 -20
-13 1 -24 12 -7 4 -9 -29 -8 -36 1 -44 4 -36 14 8 9 5 12 -10 12 -12 0 -24 -4
-27 -10 -3 -5 -1 -10 6 -10 12 0 3 -15 -9 -15 -22 -2 -51 -18 -56 -31 -3 -8
-10 -12 -16 -9 -5 3 -10 1 -10 -4 0 -6 -7 -11 -16 -11 -19 0 -44 -24 -44 -42
0 -7 -25 -33 -55 -57 -32 -26 -58 -55 -62 -70 -3 -14 -36 -56 -73 -92 -82 -79
-93 -117 -62 -201 11 -29 23 -71 27 -93 9 -50 42 -111 71 -130 25 -16 44 -70
44 -126 0 -34 28 -76 43 -64 4 3 5 2 2 -2 -3 -4 -28 -6 -57 -4 -34 2 -54 -2
-59 -11 -13 -19 -11 -113 3 -143 16 -36 28 -31 28 14 0 46 8 71 22 71 7 0 8
-12 3 -32 -11 -50 -6 -92 12 -105 19 -15 57 -17 48 -4 -3 5 0 13 6 16 13 8 15
6 23 -22 6 -17 3 -23 -9 -23 -9 0 -13 -5 -10 -11 4 -6 13 -8 20 -5 8 3 16 -6
20 -22 3 -14 13 -31 21 -36 16 -12 30 -38 103 -183 28 -57 51 -110 51 -120 0
-9 6 -24 14 -32 8 -9 17 -43 20 -75 4 -32 9 -63 12 -67 8 -13 -10 -11 -25 4
-23 21 -4 -57 41 -168 22 -55 46 -116 53 -135 9 -26 27 -43 66 -66 30 -18 63
-40 75 -51 12 -11 36 -25 55 -33 19 -7 39 -17 45 -22 13 -10 94 -8 94 2 0 4
35 25 77 46 86 42 133 86 197 184 53 82 118 256 124 333 4 50 1 63 -22 97 -14
22 -32 41 -39 41 -74 7 -90 47 -59 150 11 35 25 83 31 107 10 34 16 42 36 42
33 0 40 16 15 33 -20 14 -20 16 -4 31 9 10 24 14 35 11 40 -13 77 135 61 240
-8 53 -17 58 -68 42 -38 -13 -30 82 16 173 4 8 5 40 2 71 -2 34 0 59 6 63 8 5
8 15 1 33 -7 20 -6 30 6 43 12 13 13 20 5 25 -9 6 -9 9 0 15 15 9 15 75 1 112
-7 19 -7 28 1 30 18 6 -15 54 -94 137 -33 33 -205 139 -246 151 -19 5 -39 16
-46 25 -7 10 -52 22 -131 35 -144 24 -126 24 -202 -2z m614 -204 c-3 -3 -12
-4 -19 -1 -8 3 -5 6 6 6 11 1 17 -2 13 -5z m-230 -226 c23 -6 44 -17 47 -25 3
-8 10 -11 16 -8 14 9 18 -8 24 -93 4 -66 3 -73 -12 -65 -27 13 -145 6 -198
-12 -27 -9 -65 -31 -84 -49 -19 -19 -42 -36 -50 -39 -8 -3 -3 -6 13 -6 29 -1
47 -25 30 -42 -13 -13 6 -69 23 -69 7 0 17 -13 23 -30 12 -37 4 -40 -10 -4 -5
15 -12 24 -15 21 -9 -9 21 -62 34 -60 6 2 9 -3 6 -10 -5 -14 35 -62 44 -52 3
3 1 10 -5 16 -6 6 -9 17 -7 23 3 7 -4 21 -16 31 -20 18 -29 62 -10 50 30 -19
217 -33 248 -19 10 4 21 6 26 5 18 -4 46 11 46 25 0 8 4 13 10 9 6 -4 6 -15 0
-31 -6 -14 -6 -23 -1 -20 5 3 12 -1 15 -10 3 -8 10 -13 15 -10 5 4 12 -12 16
-33 13 -79 -71 -148 -130 -107 -18 12 -130 34 -130 25 0 -2 -11 4 -25 14 -32
22 -40 22 -40 -3 0 -19 -2 -19 -33 -6 -60 25 -225 -18 -242 -63 -8 -20 21 -41
57 -41 15 0 28 -3 28 -7 0 -18 -84 -83 -107 -83 -35 0 -100 -36 -108 -60 -8
-25 -35 -27 -28 -2 2 10 -5 26 -16 36 -20 18 -20 20 -3 32 15 12 15 12 -5 7
-12 -3 -25 -14 -28 -24 -7 -22 -13 -23 -50 -9 -26 10 -27 9 -21 -15 11 -44
-17 -28 -40 23 -53 117 -62 208 -37 365 8 51 -11 47 -27 -5 -8 -24 -15 -36
-17 -27 -2 8 2 29 8 45 7 16 11 33 10 37 -1 5 2 6 6 4 5 -3 22 12 38 33 29 38
66 57 86 45 5 -4 -1 -15 -13 -25 -19 -16 -20 -19 -6 -20 19 0 17 -32 -2 -55
-6 -8 -10 -26 -8 -42 2 -21 9 -29 27 -31 13 -2 28 1 34 7 6 6 22 11 37 11 l25
0 -24 -19 -24 -19 22 -7 c50 -15 162 19 199 62 l22 26 1 -29 c1 -16 7 3 13 43
7 40 20 80 29 91 16 17 15 19 -17 35 -41 19 -153 40 -173 33 -17 -7 -63 3 -63
13 1 10 126 91 157 101 15 5 48 14 73 21 25 7 54 21 65 31 12 9 52 29 89 42
38 14 70 27 72 28 7 8 52 6 91 -4z m133 -228 c13 -8 13 -10 -2 -10 -9 0 -20 5
-23 10 -8 13 5 13 25 0z m40 -30 c0 -5 -4 -10 -10 -10 -5 0 -10 5 -10 10 0 6
5 10 10 10 6 0 10 -4 10 -10z m-743 -36 c-3 -3 -12 -4 -19 -1 -8 3 -5 6 6 6
11 1 17 -2 13 -5z m783 -12 c0 -4 -8 -15 -19 -24 -17 -15 -18 -14 -18 8 0 17
5 24 18 24 11 0 19 -3 19 -8z m50 -56 c0 -6 -7 -1 -15 10 -8 10 -15 23 -15 28
0 6 7 1 15 -10 8 -10 15 -23 15 -28z m-1043 -138 c-3 -8 -6 -5 -6 6 -1 11 2
17 5 13 3 -3 4 -12 1 -19z m731 -154 c40 -27 19 -70 -27 -53 -18 7 -21 12 -12
23 8 10 9 16 1 21 -11 7 -5 25 8 25 4 0 18 -7 30 -16z m384 -49 c-8 -17 -20
-25 -37 -25 -14 0 -25 5 -25 11 0 5 4 8 9 4 13 -7 41 22 41 43 0 12 3 13 12 4
9 -9 9 -18 0 -37z m-47 15 c3 -5 1 -10 -4 -10 -6 0 -11 5 -11 10 0 6 2 10 4
10 3 0 8 -4 11 -10z"/>
<path d="M2362 3900 c0 -14 2 -19 5 -12 2 6 2 18 0 25 -3 6 -5 1 -5 -13z"/>
<path d="M2180 3640 c-13 -8 -12 -10 3 -10 9 0 17 5 17 10 0 12 -1 12 -20 0z"/>
<path d="M2130 3630 c0 -5 4 -10 9 -10 6 0 13 5 16 10 3 6 -1 10 -9 10 -9 0
-16 -4 -16 -10z"/>
<path d="M2095 2628 c-61 -32 -96 -68 -65 -68 6 0 20 -9 32 -20 12 -11 30 -20
40 -20 30 0 102 -33 117 -53 10 -14 16 -16 21 -7 5 8 10 3 14 -13 6 -27 47
-48 54 -29 2 7 11 8 28 2 13 -5 24 -7 24 -4 0 4 6 2 13 -4 12 -10 223 -24 347
-23 91 1 190 12 190 22 0 4 12 14 28 22 15 7 26 18 25 24 -1 6 15 19 35 29 20
11 39 21 42 24 3 3 24 12 47 19 51 17 48 26 -10 35 -25 4 -59 18 -77 31 -18
14 -48 29 -67 36 -30 10 -35 8 -57 -18 -29 -35 -155 -103 -190 -103 -14 0 -35
-9 -46 -20 -26 -26 -116 -35 -168 -16 -20 7 -63 21 -95 31 -31 10 -62 24 -68
32 -6 7 -17 13 -23 13 -7 0 -34 23 -61 50 -55 55 -71 59 -130 28z m205 -198
c0 -5 -7 -7 -15 -4 -8 4 -12 10 -9 15 6 11 24 2 24 -11z"/>
<path d="M3927 2386 c-9 -7 -17 -17 -17 -22 0 -5 -12 -31 -25 -59 -14 -27 -25
-57 -25 -65 0 -18 -31 -108 -43 -128 -11 -16 -28 -6 -20 13 8 22 -7 109 -17
99 -4 -5 -10 -83 -13 -174 -2 -91 -7 -174 -10 -185 -2 -11 -8 -49 -11 -85 -11
-99 -17 -125 -27 -109 -4 7 -11 11 -14 8 -9 -9 6 -40 16 -33 12 7 11 -25 -1
-106 -10 -60 -30 -275 -46 -477 -4 -46 -11 -83 -15 -83 -5 0 -9 -11 -9 -24 0
-24 -27 -40 -62 -36 -24 2 -78 -40 -78 -60 0 -23 46 -65 55 -50 9 15 47 -18
38 -34 -4 -6 3 -3 14 7 20 18 21 17 44 -20 22 -35 24 -49 24 -168 0 -95 4
-136 14 -151 11 -16 12 -28 3 -52 -6 -17 -8 -33 -5 -36 8 -8 99 41 127 69 14
14 32 25 39 25 17 0 137 86 137 98 0 7 -29 19 -97 38 -26 7 -11 30 37 59 27
17 51 37 53 46 2 8 22 24 43 34 21 10 45 26 52 37 7 10 19 18 26 18 7 0 35 11
61 26 31 16 51 22 58 15 5 -5 16 -7 25 -4 10 4 13 2 8 -5 -5 -8 -2 -10 10 -5
15 5 14 7 -2 16 -11 6 -22 15 -26 20 -3 6 -34 13 -68 15 -75 5 -82 18 -45 72
15 22 25 46 22 55 -4 9 2 19 16 26 30 16 67 50 67 63 0 6 -16 12 -35 13 -24 1
-35 -3 -35 -12 0 -8 -6 -12 -14 -9 -18 7 -81 -57 -69 -70 3 -3 -6 -19 -21 -36
-14 -17 -26 -37 -26 -43 0 -7 -16 -32 -35 -56 -19 -24 -35 -50 -35 -57 0 -8
-4 -14 -8 -14 -4 0 -13 -15 -20 -33 -13 -36 -82 -98 -82 -73 0 8 4 17 8 20 19
12 107 174 120 220 55 207 53 195 32 216 -26 26 -25 37 3 36 18 -1 21 4 19 27
-2 15 1 27 6 27 11 0 13 18 12 90 -2 66 -6 73 -36 67 -28 -5 -43 11 -23 25 11
7 11 11 1 15 -8 3 -4 11 14 25 14 11 30 30 35 42 5 11 13 28 18 36 14 23 51
143 51 163 0 26 -22 16 -39 -17 -7 -16 -22 -37 -32 -47 -10 -10 -19 -27 -19
-36 0 -10 -9 -33 -21 -52 -11 -19 -18 -42 -16 -53 4 -13 -2 -20 -19 -24 -18
-5 -23 -11 -19 -24 7 -24 -7 -32 -40 -24 -30 8 -54 53 -34 65 10 6 10 11 0 22
-10 13 -9 17 5 25 12 6 17 22 17 53 0 35 7 52 38 92 22 27 39 57 39 67 0 10 3
25 6 34 4 12 0 16 -15 16 -12 0 -21 5 -21 10 0 6 7 10 15 10 8 0 15 9 15 20 0
11 5 20 10 20 6 0 10 5 10 10 0 6 -18 10 -39 10 l-39 0 18 48 c10 26 16 60 13
75 -3 15 0 34 7 42 10 12 9 16 -2 20 -10 4 -13 15 -10 31 8 44 -17 25 -48 -37
-16 -34 -30 -65 -30 -70 0 -6 -9 -19 -20 -31 l-20 -21 11 34 c6 19 14 48 19
64 4 17 14 48 22 70 23 61 73 293 65 301 -1 1 -10 -3 -20 -10z m123 -1051 c0
-8 -4 -15 -10 -15 -5 0 -10 7 -10 15 0 8 5 15 10 15 6 0 10 -7 10 -15z m-4
-36 c3 -5 -21 -9 -52 -9 -35 0 -54 4 -48 9 20 19 88 19 100 0z"/>
<path d="M2545 2280 c3 -5 25 -10 48 -9 36 1 38 2 17 9 -36 12 -72 12 -65 0z"/>
<path d="M1403 2194 c-3 -8 1 -22 9 -32 35 -41 43 -96 23 -172 -8 -32 -15 -70
-15 -84 0 -15 -6 -26 -13 -26 -15 0 -57 41 -57 56 0 5 -9 17 -20 27 -11 9 -20
15 -20 12 0 -6 45 -75 71 -108 12 -15 19 -30 17 -32 -7 -8 -48 26 -48 39 0 8
-11 14 -25 14 -33 0 -32 -21 5 -103 17 -36 30 -71 30 -78 0 -6 20 -34 45 -62
52 -57 57 -72 15 -50 -16 8 -36 15 -44 15 -8 0 -22 7 -30 16 -15 14 -16 14
-16 -5 0 -12 -6 -21 -15 -21 -17 0 -20 -23 -6 -48 5 -10 10 -51 12 -92 2 -67
18 -176 35 -237 4 -13 2 -23 -3 -23 -19 0 -33 25 -33 60 0 20 -7 45 -16 56 -8
10 -13 13 -9 7 3 -7 2 -13 -4 -13 -5 0 -11 10 -13 23 -2 14 -11 23 -25 25 -20
3 -23 -1 -24 -35 -1 -21 -1 -44 0 -51 1 -8 -3 -19 -9 -26 -7 -10 -6 -17 5 -26
8 -7 15 -19 15 -26 0 -8 7 -14 15 -14 8 0 15 -7 15 -15 0 -8 9 -19 20 -25 11
-6 20 -21 20 -33 0 -12 7 -32 15 -44 21 -30 2 -34 -71 -16 -64 16 -104 45
-104 76 0 10 -9 31 -21 45 -11 15 -38 51 -60 80 -24 31 -49 52 -60 52 -23 0
-23 2 0 -46 11 -22 26 -74 35 -117 16 -75 64 -166 80 -149 4 3 4 -1 1 -10 -6
-16 51 -108 67 -108 5 0 33 -25 64 -55 30 -30 64 -57 75 -60 10 -4 19 -14 19
-23 0 -10 9 -23 20 -30 21 -13 28 -52 10 -52 -15 0 -90 38 -125 64 -16 12 -48
32 -69 45 l-39 22 -21 -21 c-13 -12 -17 -23 -11 -28 6 -4 33 -38 60 -76 28
-37 65 -86 84 -107 18 -21 30 -39 27 -39 -4 0 9 -25 29 -55 19 -31 35 -58 35
-61 0 -6 -82 52 -130 94 -21 18 -43 47 -50 65 -31 76 -60 137 -68 137 -17 0
-32 -25 -32 -52 0 -33 0 -32 -65 -13 -27 9 -63 13 -78 9 -27 -6 -28 -7 -11
-25 24 -27 150 -109 167 -109 19 0 82 -48 82 -63 0 -12 200 -135 223 -136 6
-1 12 -5 12 -10 0 -5 12 -11 28 -14 15 -3 39 -9 55 -13 25 -6 27 -4 27 24 0
44 116 262 140 262 9 0 -37 -119 -55 -140 -17 -19 -19 -156 -3 -166 7 -5 8 -3
3 6 -6 10 -2 11 19 6 18 -4 28 -2 30 6 10 39 30 94 35 98 3 3 17 26 30 53 24
47 24 47 6 90 -24 55 -35 68 -48 60 -6 -4 -8 0 -4 11 7 18 -40 146 -54 146
-14 0 -36 -42 -50 -97 -7 -29 -16 -53 -20 -53 -3 0 -9 24 -12 53 -5 52 10 87
37 87 6 0 17 14 24 30 12 27 10 44 -21 163 -28 105 -38 172 -51 327 -23 291
-36 514 -36 620 0 112 -15 260 -31 312 -13 40 -36 57 -46 32z m-35 -612 c2 -7
-2 -10 -12 -6 -9 3 -16 11 -16 16 0 13 23 5 28 -10z m-1 -464 c-3 -8 -6 -5 -6
6 -1 11 2 17 5 13 3 -3 4 -12 1 -19z m20 -80 c-3 -8 -6 -5 -6 6 -1 11 2 17 5
13 3 -3 4 -12 1 -19z"/>
<path d="M3720 2010 c0 -5 5 -10 10 -10 6 0 10 5 10 10 0 6 -4 10 -10 10 -5 0
-10 -4 -10 -10z"/>
<path d="M3657 1893 c-3 -5 3 -17 14 -26 10 -9 19 -14 19 -11 0 4 11 -1 24 -9
19 -13 25 -14 29 -3 8 21 -8 37 -39 39 -16 1 -32 6 -35 11 -4 4 -9 4 -12 -1z"/>
<path d="M1516 1784 c-11 -28 -7 -35 14 -24 23 12 27 40 6 40 -8 0 -17 -7 -20
-16z"/>
<path d="M1731 1767 c-12 -15 -5 -27 16 -27 7 0 13 9 13 20 0 23 -13 26 -29 7z"/>
<path d="M2635 1741 c-19 -8 -19 -8 3 -20 12 -7 20 -16 17 -22 -4 -5 1 -9 10
-9 8 0 18 -7 21 -15 4 -8 13 -15 20 -15 8 0 19 -10 25 -22 28 -62 66 -111 81
-102 4 3 7 20 5 38 -2 23 -17 47 -53 82 -27 27 -47 55 -46 63 6 27 -39 39 -83
22z"/>
<path d="M1728 1710 c-10 -13 -18 -19 -18 -12 0 19 -28 14 -34 -6 -3 -9 -19
-32 -36 -50 -17 -19 -28 -37 -25 -42 3 -4 -6 -17 -20 -27 -16 -12 -26 -32 -31
-59 -5 -36 -4 -42 15 -47 l22 -5 -20 -33 c-22 -36 -20 -49 9 -49 35 0 39 88 4
101 -21 8 -11 12 24 9 28 -2 29 8 0 19 -20 7 -18 9 14 15 41 7 76 53 76 99 0
16 9 34 22 45 14 12 21 26 18 42 l-3 25 -17 -25z"/>
<path d="M1283 1690 c1 -11 7 -22 15 -25 7 -3 10 -9 7 -15 -7 -11 8 -14 18 -4
8 8 -21 64 -33 64 -5 0 -8 -9 -7 -20z"/>
<path d="M3702 1560 c0 -14 2 -19 5 -12 2 6 2 18 0 25 -3 6 -5 1 -5 -13z"/>
<path d="M1139 1504 c-9 -11 -8 -18 5 -32 9 -10 16 -25 16 -33 0 -12 2 -11 10
1 8 12 10 9 10 -12 0 -22 5 -28 23 -28 12 0 34 -6 49 -14 23 -12 29 -12 39 0
9 11 8 14 -4 14 -9 0 -17 10 -19 23 -2 12 -9 21 -16 19 -7 -1 -15 5 -17 13 -3
8 -8 23 -12 33 -3 9 -6 19 -5 23 2 12 -68 6 -79 -7z"/>
<path d="M3576 1455 c-15 -12 -18 -24 -14 -74 4 -52 9 -63 39 -93 74 -72 71
-75 65 48 -5 86 -10 112 -23 122 -22 16 -43 15 -67 -3z"/>
<path d="M1663 1443 c-7 -2 -13 -12 -13 -21 0 -10 -9 -23 -21 -30 -19 -12 -20
-15 -5 -31 21 -23 20 -30 -4 -24 -11 3 -20 9 -20 12 0 4 -7 8 -15 8 -9 0 -14
-6 -11 -14 3 -7 1 -13 -5 -13 -5 0 -4 -6 3 -14 10 -11 16 -11 27 -2 8 6 12 7
9 1 -4 -6 9 -10 32 -9 28 0 44 8 64 29 14 15 26 32 26 37 0 6 9 21 20 35 11
14 17 29 14 34 -5 9 -80 11 -101 2z"/>
<path d="M1860 1321 c-29 -12 -60 -36 -60 -47 0 -14 35 -46 43 -38 3 3 27 1
54 -4 54 -12 102 -6 99 11 -6 25 -25 65 -35 71 -14 9 -84 14 -101 7z"/>
<path d="M2025 1307 c-20 -16 -23 -54 -5 -97 13 -31 40 -41 40 -15 0 8 6 15
14 15 8 0 16 17 20 47 3 25 5 47 4 48 -15 11 -58 12 -73 2z"/>
<path d="M1625 1237 c-13 -8 -20 -22 -20 -41 1 -16 -5 -35 -13 -42 -11 -12
-11 -14 3 -14 19 0 64 49 65 71 0 8 5 20 12 27 16 16 -19 15 -47 -1z"/>
<path d="M3016 1173 c-55 -14 -92 -43 -111 -90 -8 -18 -21 -33 -30 -33 -9 0
-15 -3 -13 -7 24 -49 32 -63 39 -63 5 0 4 12 -1 26 -13 34 -14 34 19 34 56 0
129 -36 204 -100 17 -14 24 -21 57 -58 16 -18 56 -84 102 -167 27 -48 37 -69
115 -235 43 -91 100 -170 137 -189 24 -13 31 -13 61 3 30 17 33 21 23 40 -6
11 -10 21 -9 21 4 0 -10 37 -32 85 -11 25 -41 98 -68 164 -26 65 -54 126 -62
135 -8 9 -18 26 -22 39 -3 12 -21 42 -40 66 -18 24 -36 53 -40 65 -8 26 -90
129 -117 149 -10 7 -18 18 -18 23 0 19 -70 79 -107 92 -30 10 -48 10 -87 0z"/>
<path d="M4203 782 c-13 -2 -23 -9 -23 -16 0 -19 56 -14 76 5 14 15 14 16 -8
16 -12 -1 -33 -3 -45 -5z"/>
<path d="M3576 704 c-18 -40 -14 -124 8 -124 6 0 22 -30 36 -66 13 -36 26 -61
28 -55 4 12 -26 99 -41 119 -6 7 -10 46 -11 87 -1 41 -1 75 -2 75 0 0 -8 -16
-18 -36z"/>
<path d="M2384 713 c-7 -2 -10 -12 -7 -23 3 -12 -1 -20 -14 -23 -16 -4 -16 -5
0 -6 9 0 17 -5 17 -11 0 -14 28 -1 34 17 7 18 -15 51 -30 46z"/>
<path d="M3660 371 c0 -5 5 -13 10 -16 6 -3 10 -2 10 4 0 5 -4 13 -10 16 -5 3
-10 2 -10 -4z"/>
<path d="M2896 335 c4 -8 8 -15 10 -15 2 0 4 7 4 15 0 8 -4 15 -10 15 -5 0 -7
-7 -4 -15z"/>
<path d="M1960 294 c0 -8 -5 -14 -11 -14 -6 0 -9 -9 -6 -20 5 -20 -1 -24 -58
-32 -23 -4 -42 -73 -25 -93 17 -20 152 -47 181 -37 l24 9 -23 7 c-26 9 -28 24
-5 41 14 10 15 16 5 27 -6 8 -9 18 -5 21 3 4 1 7 -5 7 -8 0 -8 8 0 31 8 24 8
33 -3 39 -7 5 -17 6 -21 4 -4 -3 -8 1 -8 8 0 8 -9 14 -20 15 -11 1 -20 -4 -20
-13z"/>
<path d="M1595 230 c-19 -7 -19 -7 3 -14 26 -9 41 -1 26 13 -5 5 -18 5 -29 1z"/>
<path d="M2695 70 c-3 -5 1 -10 9 -10 8 0 18 5 21 10 3 6 -1 10 -9 10 -8 0
-18 -4 -21 -10z"/>
</g>
</svg>
